HIERARCHY
ROOT hip
{
  OFFSET 0 90.174 2.4664
  CHANNELS 6 Xposition Yposition Zposition Zrotation Xrotation Yrotation
  JOINT abdomen
  {
    OFFSET 0 -1.186 -1.5018
    CHANNELS 6 Xposition Yposition Zposition Zrotation Xrotation Yrotation
    JOINT abdomen2
    {
      OFFSET 0 9.964 0.2134
      CHANNELS 6 Xposition Yposition Zposition Zrotation Xrotation Yrotation
      JOINT chest
      {
        OFFSET 0 13.134 -3.2573
        CHANNELS 6 Xposition Yposition Zposition Zrotation Xrotation Yrotation
        JOINT neck
        {
          OFFSET 0 20.686 -1.6905
          CHANNELS 6 Xposition Yposition Zposition Zrotation Xrotation Yrotation
          JOINT head
          {
            OFFSET 0 7.238 -0.1237
            CHANNELS 6 Xposition Yposition Zposition Zrotation Xrotation Yrotation
            End Site
            {
              OFFSET 0 0 0
            }
          }
        }
        JOINT lCollar
        {
          OFFSET 1.7069 20.075 5.0056
          CHANNELS 6 Xposition Yposition Zposition Zrotation Xrotation Yrotation
          JOINT lShldr
          {
            OFFSET 13.6458 -0.047 -4.849
            CHANNELS 6 Xposition Yposition Zposition Zrotation Xrotation Yrotation
            JOINT lForeArm
            {
              OFFSET 28.3255 -0.9759 2.2888
              CHANNELS 6 Xposition Yposition Zposition Zrotation Xrotation Yrotation
              JOINT lHand
              {
                OFFSET 22.1583 -0.53 10.8316
                CHANNELS 6 Xposition Yposition Zposition Zrotation Xrotation Yrotation
                JOINT lThumb1
                {
                  OFFSET 0.786 0.112 2.5817
                  CHANNELS 6 Xposition Yposition Zposition Zrotation Xrotation Yrotation
                  JOINT lThumb2
                  {
                    OFFSET 0.3601 -0.878 4.2331
                    CHANNELS 6 Xposition Yposition Zposition Zrotation Xrotation Yrotation
                    JOINT lThumb2_End
                    {
                      OFFSET 1.8127 -1.216 2.2227
                      CHANNELS 6 Xposition Yposition Zposition Zrotation Xrotation Yrotation
                      End Site
                      {
                        OFFSET 0.0181 -0.0122 0.0222
                      }
                    }
                  }
                }
                JOINT lCarpal1
                {
                  OFFSET 0.9571 1.114 1.7695
                  CHANNELS 6 Xposition Yposition Zposition Zrotation Xrotation Yrotation
                  JOINT lIndex1
                  {
                    OFFSET 4.1246 0.487 4.1451
                    CHANNELS 6 Xposition Yposition Zposition Zrotation Xrotation Yrotation
                    JOINT lIndex2
                    {
                      OFFSET 3.4052 -1.454 2.7682
                      CHANNELS 6 Xposition Yposition Zposition Zrotation Xrotation Yrotation
                      JOINT lIndex2_End
                      {
                        OFFSET 1.4531 -1.795 1.2713
                        CHANNELS 6 Xposition Yposition Zposition Zrotation Xrotation Yrotation
                        End Site
                        {
                          OFFSET 0.0145 -0.0179 0.0127
                        }
                      }
                    }
                  }
                  JOINT lMid1
                  {
                    OFFSET 5.6954 0.21 2.1184
                    CHANNELS 6 Xposition Yposition Zposition Zrotation Xrotation Yrotation
                    JOINT lMid2
                    {
                      OFFSET 3.9766 -1.54 2.3863
                      CHANNELS 6 Xposition Yposition Zposition Zrotation Xrotation Yrotation
                      JOINT lMid2_End
                      {
                        OFFSET 1.4042 -1.926 1.125
                        CHANNELS 6 Xposition Yposition Zposition Zrotation Xrotation Yrotation
                        End Site
                        {
                          OFFSET 0.014 -0.0193 0.0113
                        }
                      }
                    }
                  }
                }
                JOINT lCarpal2
                {
                  OFFSET 2.0956 0.66 -0.3894
                  CHANNELS 6 Xposition Yposition Zposition Zrotation Xrotation Yrotation
                  JOINT lRing1
                  {
                    OFFSET 5.0395 -0.09 2.4971
                    CHANNELS 6 Xposition Yposition Zposition Zrotation Xrotation Yrotation
                    JOINT lRing2
                    {
                      OFFSET 3.7921 -1.552 1.4806
                      CHANNELS 6 Xposition Yposition Zposition Zrotation Xrotation Yrotation
                      JOINT lRing2_End
                      {
                        OFFSET 1.4655 -1.808 0.9609
                        CHANNELS 6 Xposition Yposition Zposition Zrotation Xrotation Yrotation
                        End Site
                        {
                          OFFSET 0.0147 -0.0181 0.0096
                        }
                      }
                    }
                  }
                  JOINT lPinky1
                  {
                    OFFSET 4.9141 -1.269 0.3591
                    CHANNELS 6 Xposition Yposition Zposition Zrotation Xrotation Yrotation
                    JOINT lPinky2
                    {
                      OFFSET 3.1477 -1.685 0.8462
                      CHANNELS 6 Xposition Yposition Zposition Zrotation Xrotation Yrotation
                      JOINT lPinky2_End
                      {
                        OFFSET 0.8055 -1.585 0.7955
                        CHANNELS 6 Xposition Yposition Zposition Zrotation Xrotation Yrotation
                        End Site
                        {
                          OFFSET 0.0081 -0.0158 0.008
                        }
                      }
                    }
                  }
                }
              }
            }
          }
        }
        JOINT rCollar
        {
          OFFSET -1.7069 20.075 5.0056
          CHANNELS 6 Xposition Yposition Zposition Zrotation Xrotation Yrotation
          JOINT rShldr
          {
            OFFSET -13.6458 -0.047 -4.849
            CHANNELS 6 Xposition Yposition Zposition Zrotation Xrotation Yrotation
            JOINT rForeArm
            {
              OFFSET -28.3255 -0.9759 2.2888
              CHANNELS 6 Xposition Yposition Zposition Zrotation Xrotation Yrotation
              JOINT rHand
              {
                OFFSET -22.1583 -0.53 10.8316
                CHANNELS 6 Xposition Yposition Zposition Zrotation Xrotation Yrotation
                JOINT rThumb1
                {
                  OFFSET -0.786 0.112 2.5817
                  CHANNELS 6 Xposition Yposition Zposition Zrotation Xrotation Yrotation
                  JOINT rThumb2
                  {
                    OFFSET -0.3601 -0.878 4.2331
                    CHANNELS 6 Xposition Yposition Zposition Zrotation Xrotation Yrotation
                    JOINT rThumb2_End
                    {
                      OFFSET -1.8127 -1.216 2.2227
                      CHANNELS 6 Xposition Yposition Zposition Zrotation Xrotation Yrotation
                      End Site
                      {
                        OFFSET -0.0181 -0.0122 0.0222
                      }
                    }
                  }
                }
                JOINT rCarpal1
                {
                  OFFSET -0.9571 1.114 1.7695
                  CHANNELS 6 Xposition Yposition Zposition Zrotation Xrotation Yrotation
                  JOINT rIndex1
                  {
                    OFFSET -4.1246 0.487 4.1451
                    CHANNELS 6 Xposition Yposition Zposition Zrotation Xrotation Yrotation
                    JOINT rIndex2
                    {
                      OFFSET -3.4052 -1.454 2.7682
                      CHANNELS 6 Xposition Yposition Zposition Zrotation Xrotation Yrotation
                      JOINT rIndex2_End
                      {
                        OFFSET -1.4531 -1.795 1.2713
                        CHANNELS 6 Xposition Yposition Zposition Zrotation Xrotation Yrotation
                        End Site
                        {
                          OFFSET -0.0145 -0.018 0.0127
                        }
                      }
                    }
                  }
                  JOINT rMid1
                  {
                    OFFSET -5.6954 0.21 2.1184
                    CHANNELS 6 Xposition Yposition Zposition Zrotation Xrotation Yrotation
                    JOINT rMid2
                    {
                      OFFSET -3.9766 -1.54 2.3863
                      CHANNELS 6 Xposition Yposition Zposition Zrotation Xrotation Yrotation
                      JOINT rMid2_End
                      {
                        OFFSET -1.4042 -1.926 1.125
                        CHANNELS 6 Xposition Yposition Zposition Zrotation Xrotation Yrotation
                        End Site
                        {
                          OFFSET -0.014 -0.0193 0.0113
                        }
                      }
                    }
                  }
                }
                JOINT rCarpal2
                {
                  OFFSET -2.0956 0.66 -0.3894
                  CHANNELS 6 Xposition Yposition Zposition Zrotation Xrotation Yrotation
                  JOINT rRing1
                  {
                    OFFSET -5.0395 -0.09 2.4971
                    CHANNELS 6 Xposition Yposition Zposition Zrotation Xrotation Yrotation
                    JOINT rRing2
                    {
                      OFFSET -3.7921 -1.552 1.4806
                      CHANNELS 6 Xposition Yposition Zposition Zrotation Xrotation Yrotation
                      JOINT rRing2_End
                      {
                        OFFSET -1.4655 -1.808 0.9609
                        CHANNELS 6 Xposition Yposition Zposition Zrotation Xrotation Yrotation
                        End Site
                        {
                          OFFSET -0.0147 -0.0181 0.0096
                        }
                      }
                    }
                  }
                  JOINT rPinky1
                  {
                    OFFSET -4.9141 -1.269 0.3592
                    CHANNELS 6 Xposition Yposition Zposition Zrotation Xrotation Yrotation
                    JOINT rPinky2
                    {
                      OFFSET -3.1477 -1.685 0.8462
                      CHANNELS 6 Xposition Yposition Zposition Zrotation Xrotation Yrotation
                      JOINT rPinky2_End
                      {
                        OFFSET -0.8055 -1.585 0.7955
                        CHANNELS 6 Xposition Yposition Zposition Zrotation Xrotation Yrotation
                        End Site
                        {
                          OFFSET -0.0081 -0.0158 0.008
                        }
                      }
                    }
                  }
                }
              }
            }
          }
        }
      }
    }
  }
  JOINT lThigh
  {
    OFFSET 8.367 -8.2066 0.5982
    CHANNELS 6 Xposition Yposition Zposition Zrotation Xrotation Yrotation
    JOINT lShin
    {
      OFFSET 2.1923 -43.463 -0.4932
      CHANNELS 6 Xposition Yposition Zposition Zrotation Xrotation Yrotation
      JOINT lFoot
      {
        OFFSET 0.7333 -45.8593 -2.6451
        CHANNELS 6 Xposition Yposition Zposition Zrotation Xrotation Yrotation
        End Site
        {
          OFFSET 2.6618 -4.2699 12.3931
        }
      }
    }
  }
  JOINT rThigh
  {
    OFFSET -8.367 -8.2066 0.5982
    CHANNELS 6 Xposition Yposition Zposition Zrotation Xrotation Yrotation
    JOINT rShin
    {
      OFFSET -2.1923 -43.463 -0.4931
      CHANNELS 6 Xposition Yposition Zposition Zrotation Xrotation Yrotation
      JOINT rFoot
      {
        OFFSET -0.7333 -45.8593 -2.6451
        CHANNELS 6 Xposition Yposition Zposition Zrotation Xrotation Yrotation
        End Site
        {
          OFFSET -2.6618 -4.2699 12.3931
        }
      }
    }
  }
}
MOTION
Frames:	4
Frame Time:	0.0333333
-2.40494 14.4112 20.7581 -4.77731e-015 17.7006 180 0 -1.186 -1.5018 -0.435164 3.83337 0.127653 0 9.964 0.2134 -0.881878 7.66565 0.285521 -4.44089e-016 13.134 -3.2573 -0.881879 7.66565 0.285521 2.22045e-016 20.686 -1.6905 -4.36765e-005 -0.118306 -8.78962e-007 4.44089e-016 7.238 -0.1237 0.0499572 -0.0902745 3.96031e-005 1.7069 20.075 5.0056 -16.8647 -37.5981 15.3331 13.6458 -0.047 -4.849 -42.4495 6.11939 -1.12679 28.3255 -0.9759 2.2888 -52.952 56.7488 -29.3204 22.1583 -0.53 10.8316 34.2797 19.1899 11.189 0.786 0.112 2.5817 -1.16969e-030 -2.10712e-014 -3.18055e-015 0.3601 -0.878 4.2331 -3.18055e-015 -1.82882e-014 -3.18055e-015 1.8127 -1.216 2.2227 -1.59028e-015 -1.47101e-014 -3.18055e-015 0.9571 1.114 1.7695 3.18055e-015 -7.55382e-015 -0 4.1246 0.487 4.1451 -3.08973e-031 -5.56597e-015 -3.18055e-015 3.4052 -1.454 2.7682 -3.18055e-015 -2.26615e-014 -0 1.4531 -1.795 1.2713 -1.59028e-015 -2.14687e-014 -3.18055e-015 5.6954 0.21 2.1184 -3.08973e-031 -5.56597e-015 -3.18055e-015 3.9766 -1.54 2.3863 -3.18055e-015 -2.26615e-014 -0 1.4042 -1.926 1.125 -1.59028e-015 -2.14687e-014 -3.18055e-015 2.0956 0.66 -0.3894 3.18055e-015 -7.55382e-015 -0 5.0395 -0.09 2.4971 -3.08973e-031 -5.56597e-015 -3.18055e-015 3.7921 -1.552 1.4806 -3.18055e-015 -2.26615e-014 -0 1.4655 -1.808 0.9609 -1.59028e-015 -2.14687e-014 -3.18055e-015 4.9141 -1.269 0.3591 -3.08973e-031 -5.56597e-015 -3.18055e-015 3.1477 -1.685 0.8462 -3.18055e-015 -2.26615e-014 -0 0.8055 -1.585 0.7955 -1.59028e-015 -2.14687e-014 -3.18055e-015 -1.7069 20.075 5.0056 2.67624 -38.2229 -21.6607 -13.6458 -0.047 -4.849 39.6846 5.49954 2.30976 -28.3255 -0.9759 2.2888 40.7899 48.9915 24.2534 -22.1583 -0.53 10.8316 -19.0129 1.37576 7.0736 -0.786 0.112 2.5817 2.38542e-015 1.19271e-014 6.36111e-015 -0.3601 -0.878 4.2331 -2.38542e-015 1.59028e-015 6.36111e-015 -1.8127 -1.216 2.2227 -1.59028e-015 7.95139e-016 -0 -0.9571 1.114 1.7695 4.77083e-015 1.19271e-014 -0 -4.1246 0.487 4.1451 6.36111e-015 -5.1684e-015 3.18055e-015 -3.4052 -1.454 2.7682 -4.77083e-015 -2.78299e-015 6.36111e-015 -1.4531 -1.795 1.2713 -3.18055e-015 -3.18055e-015 3.18055e-015 -5.6954 0.21 2.1184 6.36111e-015 -5.1684e-015 3.18055e-015 -3.9766 -1.54 2.3863 -4.77083e-015 -2.78299e-015 6.36111e-015 -1.4042 -1.926 1.125 -3.18055e-015 -3.18055e-015 3.18055e-015 -2.0956 0.66 -0.3894 4.77083e-015 1.19271e-014 -0 -5.0395 -0.09 2.4971 6.36111e-015 -5.1684e-015 3.18055e-015 -3.7921 -1.552 1.4806 -4.77083e-015 -2.78299e-015 6.36111e-015 -1.4655 -1.808 0.9609 -3.18055e-015 -3.18055e-015 3.18055e-015 -4.9141 -1.269 0.3592 6.36111e-015 -5.1684e-015 3.18055e-015 -3.1477 -1.685 0.8462 -4.77083e-015 -2.78299e-015 6.36111e-015 -0.8055 -1.585 0.7955 -3.18055e-015 -3.18055e-015 3.18055e-015 8.367 -8.2066 0.5982 97.9421 -21.8196 144.277 2.1923 -43.463 -0.4932 166.753 65.8551 -160.18 0.7333 -45.8593 -2.6451 -30.8865 52.7319 11.3896 -8.367 -8.2066 0.5982 -94.8545 -30.826 -145.469 -2.1923 -43.463 -0.4931 -167.98 63.653 161.359 -0.7333 -45.8593 -2.6451 31.1943 41.7508 -12.1532 
-2.40625 14.4036 20.8172 -4.81777e-015 17.4003 180 0 -1.186 -1.5018 -0.434199 3.92909 0.129818 -4.44089e-016 9.964 0.2134 -0.880462 7.85707 0.290589 0 13.134 -3.2573 -0.880463 7.85707 0.290589 -2.22045e-016 20.686 -1.6905 -4.29266e-005 -0.117705 -7.59775e-007 4.44089e-016 7.238 -0.1237 0.0497069 -0.0898228 3.8867e-005 1.7069 20.075 5.0056 -16.8201 -37.9668 15.1387 13.6458 -0.047 -4.849 -42.4495 6.11939 -1.12679 28.3255 -0.9759 2.2888 -53.0963 56.8426 -29.4053 22.1583 -0.53 10.8316 34.5584 19.1308 11.0524 0.786 0.112 2.5817 2.8178e-006 -3.25675e-006 7.27399e-006 0.3601 -0.878 4.2331 -3.38333e-006 -9.68517e-007 -8.01908e-006 1.8127 -1.216 2.2227 -4.77083e-015 -9.93923e-015 -3.18055e-015 0.9571 1.114 1.7695 1.59028e-015 -1.59028e-015 -6.36111e-015 4.1246 0.487 4.1451 2.8178e-006 -3.25675e-006 7.27399e-006 3.4052 -1.454 2.7682 -3.38333e-006 -9.68517e-007 -8.01908e-006 1.4531 -1.795 1.2713 -6.36111e-015 -6.75868e-015 -0 5.6954 0.21 2.1184 2.8178e-006 -3.25675e-006 7.27399e-006 3.9766 -1.54 2.3863 -3.38333e-006 -9.68517e-007 -8.01908e-006 1.4042 -1.926 1.125 -6.36111e-015 -6.75868e-015 -0 2.0956 0.66 -0.3894 1.59028e-015 -1.59028e-015 -6.36111e-015 5.0395 -0.09 2.4971 2.8178e-006 -3.25675e-006 7.27399e-006 3.7921 -1.552 1.4806 -3.38333e-006 -9.68517e-007 -8.01908e-006 1.4655 -1.808 0.9609 -6.36111e-015 -6.75868e-015 -0 4.9141 -1.269 0.3591 2.8178e-006 -3.25675e-006 7.27399e-006 3.1477 -1.685 0.8462 -3.38333e-006 -9.68517e-007 -8.01908e-006 0.8055 -1.585 0.7955 -6.36111e-015 -6.75868e-015 -0 -1.7069 20.075 5.0056 2.35074 -38.506 -21.6995 -13.6458 -0.047 -4.849 39.8058 5.50918 2.34277 -28.3255 -0.9759 2.2888 40.9152 49.0644 24.3286 -22.1583 -0.53 10.8316 -19.2911 1.09798 7.25126 -0.786 0.112 2.5817 2.38542e-015 -1.59028e-015 3.18055e-015 -0.3601 -0.878 4.2331 -2.38542e-015 -2.78299e-015 -0 -1.8127 -1.216 2.2227 1.59028e-015 7.95139e-016 -3.18055e-015 -0.9571 1.114 1.7695 3.97569e-015 -1.19271e-015 3.18055e-015 -4.1246 0.487 4.1451 -2.38542e-015 -1.59028e-015 -0 -3.4052 -1.454 2.7682 -3.97569e-015 1.59028e-015 3.18055e-015 -1.4531 -1.795 1.2713 0 3.97569e-015 -0 -5.6954 0.21 2.1184 -2.38542e-015 -1.59028e-015 -0 -3.9766 -1.54 2.3863 -3.97569e-015 1.59028e-015 3.18055e-015 -1.4042 -1.926 1.125 0 3.97569e-015 -0 -2.0956 0.66 -0.3894 3.97569e-015 -1.19271e-015 3.18055e-015 -5.0395 -0.09 2.4971 -2.38542e-015 -1.59028e-015 -0 -3.7921 -1.552 1.4806 -3.97569e-015 1.59028e-015 3.18055e-015 -1.4655 -1.808 0.9609 0 3.97569e-015 -0 -4.9141 -1.269 0.3592 -2.38542e-015 -1.59028e-015 -0 -3.1477 -1.685 0.8462 -3.97569e-015 1.59028e-015 3.18055e-015 -0.8055 -1.585 0.7955 0 3.97569e-015 -0 8.367 -8.2066 0.5982 98.0893 -21.8696 144.646 2.1923 -43.463 -0.4932 166.754 65.8531 -160.178 0.7333 -45.8593 -2.6451 -31.0342 52.7498 11.589 -8.367 -8.2066 0.5982 -95.0581 -30.8563 -145.873 -2.1923 -43.463 -0.4931 -167.985 63.6457 161.366 -0.7333 -45.8593 -2.6451 31.1987 41.7526 -12.1542 
-2.40756 14.3958 20.8763 -4.85809e-015 17.1 180 0 -1.186 -1.5018 -0.433234 4.02478 0.131984 0 9.964 0.2134 -0.879054 8.04843 0.295659 4.44089e-016 13.134 -3.2573 -0.879054 8.04843 0.295659 2.22045e-016 20.686 -1.6905 -8.06462e-006 -0.117137 -6.81258e-007 2.22045e-016 7.238 -0.1237 0.0494576 -0.0893711 3.81487e-005 1.7069 20.075 5.0056 -16.7768 -38.3355 14.9438 13.6458 -0.047 -4.849 -42.4495 6.11939 -1.12679 28.3255 -0.9759 2.2888 -53.2407 56.9364 -29.4901 22.1583 -0.53 10.8316 34.8368 19.071 10.9162 0.786 0.112 2.5817 -4.77083e-015 -5.56597e-015 3.18055e-015 0.3601 -0.878 4.2331 -3.86783e-006 -3.59609e-006 -4.83709e-007 1.8127 -1.216 2.2227 1.59028e-015 -6.36111e-015 6.36111e-015 0.9571 1.114 1.7695 -4.77083e-015 1.19271e-015 -0 4.1246 0.487 4.1451 5.29669e-031 -9.54166e-015 3.18055e-015 3.4052 -1.454 2.7682 -3.86783e-006 -3.59609e-006 -4.83709e-007 1.4531 -1.795 1.2713 -0 -3.97569e-015 -0 5.6954 0.21 2.1184 5.29669e-031 -9.54166e-015 3.18055e-015 3.9766 -1.54 2.3863 -3.86783e-006 -3.59609e-006 -4.83709e-007 1.4042 -1.926 1.125 -0 -3.97569e-015 -0 2.0956 0.66 -0.3894 -4.77083e-015 1.19271e-015 -0 5.0395 -0.09 2.4971 5.29669e-031 -9.54166e-015 3.18055e-015 3.7921 -1.552 1.4806 -3.86783e-006 -3.59609e-006 -4.83709e-007 1.4655 -1.808 0.9609 -0 -3.97569e-015 -0 4.9141 -1.269 0.3591 5.29669e-031 -9.54166e-015 3.18055e-015 3.1477 -1.685 0.8462 -3.86783e-006 -3.59609e-006 -4.83709e-007 0.8055 -1.585 0.7955 -0 -3.97569e-015 -0 -1.7069 20.075 5.0056 2.02372 -38.7889 -21.7405 -13.6458 -0.047 -4.849 39.9269 5.51889 2.37578 -28.3255 -0.9759 2.2888 41.0406 49.1375 24.4036 -22.1583 -0.53 10.8316 -19.5684 0.819348 7.42754 -0.786 0.112 2.5817 3.18055e-015 4.77083e-015 6.36111e-015 -0.3601 -0.878 4.2331 2.38542e-015 8.34896e-015 3.18055e-015 -1.8127 -1.216 2.2227 7.95139e-016 1.70955e-014 3.18055e-015 -0.9571 1.114 1.7695 2.38542e-015 -2.78299e-015 3.18055e-015 -4.1246 0.487 4.1451 5.56597e-015 -1.39149e-014 3.18055e-015 -3.4052 -1.454 2.7682 1.59028e-015 7.15625e-015 9.54166e-015 -1.4531 -1.795 1.2713 -1.98626e-031 3.57812e-015 3.18055e-015 -5.6954 0.21 2.1184 5.56597e-015 -1.39149e-014 3.18055e-015 -3.9766 -1.54 2.3863 1.59028e-015 7.15625e-015 9.54166e-015 -1.4042 -1.926 1.125 -1.98626e-031 3.57812e-015 3.18055e-015 -2.0956 0.66 -0.3894 2.38542e-015 -2.78299e-015 3.18055e-015 -5.0395 -0.09 2.4971 5.56597e-015 -1.39149e-014 3.18055e-015 -3.7921 -1.552 1.4806 1.59028e-015 7.15625e-015 9.54166e-015 -1.4655 -1.808 0.9609 -1.98626e-031 3.57812e-015 3.18055e-015 -4.9141 -1.269 0.3592 5.56597e-015 -1.39149e-014 3.18055e-015 -3.1477 -1.685 0.8462 1.59028e-015 7.15625e-015 9.54166e-015 -0.8055 -1.585 0.7955 -1.98626e-031 3.57812e-015 3.18055e-015 8.367 -8.2066 0.5982 98.2369 -21.9185 145.014 2.1923 -43.463 -0.4932 166.755 65.8509 -160.175 0.7333 -45.8593 -2.6451 -31.1821 52.7675 11.7885 -8.367 -8.2066 0.5982 -95.2621 -30.8851 -146.277 -2.1923 -43.463 -0.4931 -167.99 63.6381 161.374 -0.7333 -45.8593 -2.6451 31.2031 41.7545 -12.1552 
-2.40887 14.3879 20.9355 -4.89828e-015 16.7997 180 0 -1.186 -1.5018 -0.432266 4.12045 0.134151 4.44089e-016 9.964 0.2134 -0.877652 8.23972 0.300729 4.44089e-016 13.134 -3.2573 -0.877652 8.23972 0.300729 0 20.686 -1.6905 -5.72044e-005 -0.116407 -6.68699e-007 -2.22045e-016 7.238 -0.1237 0.049208 -0.0889204 3.83302e-005 1.7069 20.075 5.0056 -16.7349 -38.7044 14.7482 13.6458 -0.047 -4.849 -42.4495 6.11939 -1.1268 28.3255 -0.9759 2.2888 -53.3852 57.0304 -29.5746 22.1583 -0.53 10.8316 35.1149 19.0106 10.7804 0.786 0.112 2.5817 -5.12791e-006 3.02671e-006 1.70182e-006 0.3601 -0.878 4.2331 -5.62061e-006 3.45923e-006 -2.65179e-006 1.8127 -1.216 2.2227 8.2614e-007 -7.11512e-006 4.04722e-006 0.9571 1.114 1.7695 0 3.97569e-016 -0 4.1246 0.487 4.1451 -5.12791e-006 3.02671e-006 1.70182e-006 3.4052 -1.454 2.7682 -5.62061e-006 3.45923e-006 -2.65179e-006 1.4531 -1.795 1.2713 8.2614e-007 -7.11512e-006 4.04722e-006 5.6954 0.21 2.1184 -5.12791e-006 3.02671e-006 1.70182e-006 3.9766 -1.54 2.3863 -5.62061e-006 3.45923e-006 -2.65179e-006 1.4042 -1.926 1.125 8.2614e-007 -7.11512e-006 4.04722e-006 2.0956 0.66 -0.3894 0 3.97569e-016 -0 5.0395 -0.09 2.4971 -5.12791e-006 3.02671e-006 1.70182e-006 3.7921 -1.552 1.4806 -5.62061e-006 3.45923e-006 -2.65179e-006 1.4655 -1.808 0.9609 8.2614e-007 -7.11512e-006 4.04722e-006 4.9141 -1.269 0.3591 -5.12791e-006 3.02671e-006 1.70182e-006 3.1477 -1.685 0.8462 -5.62061e-006 3.45923e-006 -2.65179e-006 0.8055 -1.585 0.7955 8.2614e-007 -7.11512e-006 4.04722e-006 -1.7069 20.075 5.0056 1.69517 -39.0716 -21.7837 -13.6458 -0.047 -4.849 40.0482 5.52867 2.40877 -28.3255 -0.9759 2.2888 41.166 49.2107 24.4784 -22.1583 -0.53 10.8316 -19.8448 0.539889 7.60244 -0.786 0.112 2.5817 -0 -1.98785e-015 -0 -0.3601 -0.878 4.2331 7.95139e-016 -3.97569e-016 6.36111e-015 -1.8127 -1.216 2.2227 -2.38542e-015 1.19271e-015 -0 -0.9571 1.114 1.7695 -7.95139e-016 -1.59028e-015 -0 -4.1246 0.487 4.1451 3.97569e-015 -1.90833e-014 3.18055e-015 -3.4052 -1.454 2.7682 1.59028e-015 -3.18055e-015 -6.36111e-015 -1.4531 -1.795 1.2713 3.18055e-015 6.75868e-015 -3.18055e-015 -5.6954 0.21 2.1184 3.97569e-015 -1.90833e-014 3.18055e-015 -3.9766 -1.54 2.3863 1.59028e-015 -3.18055e-015 -6.36111e-015 -1.4042 -1.926 1.125 3.18055e-015 6.75868e-015 -3.18055e-015 -2.0956 0.66 -0.3894 -7.95139e-016 -1.59028e-015 -0 -5.0395 -0.09 2.4971 3.97569e-015 -1.90833e-014 3.18055e-015 -3.7921 -1.552 1.4806 1.59028e-015 -3.18055e-015 -6.36111e-015 -1.4655 -1.808 0.9609 3.18055e-015 6.75868e-015 -3.18055e-015 -4.9141 -1.269 0.3592 3.97569e-015 -1.90833e-014 3.18055e-015 -3.1477 -1.685 0.8462 1.59028e-015 -3.18055e-015 -6.36111e-015 -0.8055 -1.585 0.7955 3.18055e-015 6.75868e-015 -3.18055e-015 8.367 -8.2066 0.5982 98.3849 -21.9666 145.383 2.1923 -43.463 -0.4932 166.756 65.8488 -160.173 0.7333 -45.8593 -2.6451 -31.3301 52.7849 11.9881 -8.367 -8.2066 0.5982 -95.4663 -30.9127 -146.681 -2.1923 -43.463 -0.4931 -167.995 63.6306 161.382 -0.7333 -45.8593 -2.6451 31.2074 41.7564 -12.1562 
